<svg id="Capa_1" enable-background="new 0 0 511.726 511.726" height="512" viewBox="0 0 511.726 511.726" width="512" xmlns="http://www.w3.org/2000/svg"><path d="m64.699 303.337h184.416c35.055-28.202 57.449-72.107 57.123-121.281-.42-62.76-37.71-116.44-90.71-139.64-18.31-8.03-38.49-12.41-59.68-12.27-82.49.56-148.91 69.46-148.34 153.9.322 48.466 22.64 91.508 57.191 119.291z" fill="#fe646f"/><path d="m298.31 331.196c41.923-43.052 103.737-106.598 131.834-135.83 3.132-43.273-12.378-87.998-46.257-121.19-46.33-45.38-113.53-55.98-168.36-31.76l7.92 277.56c23.911 10.056 49.721 13.791 74.863 11.22z" fill="#01d0fb"/><path d="m249.242 32.156c-11.549 2.067-22.876 5.472-33.715 10.26l7.92 277.56c8.567 3.603 17.381 6.38 26.317 8.361l6.557 1.31 1.601-1.31 6.863-5.521c42.597-34.269 66.817-85.634 66.45-140.927-.41-61.547-31.867-117.785-81.993-149.733z" fill="#08a9f1"/><path d="m43.677 280.286 227.48-.76.98.79c-13.26 16.47-29.84 30.05-48.69 39.66-12.05 6.15-25.04 10.69-38.68 13.32l.87 130.42c.07 9.95-7.94 18.06-17.88 18.13l-17.77.12c-9.95.06-18.06-7.94-18.13-17.89l-.87-130.42c-35.32-6.33-66.4-25.36-88.54-52.36z" fill="#fccd7f"/><path d="m64.699 303.337h184.416c35.055-28.202 57.449-72.107 57.123-121.281-.42-62.76-37.71-116.44-90.71-139.64-18.31-8.03-38.49-12.41-59.68-12.27-82.49.56-148.91 69.46-148.34 153.9.322 48.466 22.64 91.508 57.191 119.291z" fill="#fe646f"/><path d="m70.743 184.046c-.497-73.678 50.009-135.518 117.689-150.458-10.497-2.318-21.399-3.515-32.586-3.441-82.49.56-148.91 69.46-148.34 153.9.323 48.466 22.641 91.508 57.192 119.291h63.236c-34.55-27.784-56.868-70.826-57.191-119.292z" fill="#fd4755"/><path d="m43.677 280.286 227.48-.76.98.79c-13.26 16.47-29.84 30.05-48.69 39.66-12.05 6.15-25.04 10.69-38.68 13.32l.87 130.42c.07 9.95-7.94 18.06-17.88 18.13l-17.77.12c-9.95.06-18.06-7.94-18.13-17.89l-.87-130.42c-35.32-6.33-66.4-25.36-88.54-52.36z" fill="#fccd7f"/><path d="m188.506 332.505c-32.952-7.278-61.886-25.676-82.823-51.209l1.23-1.01 164.505-.55-.261-.21-227.48.76-1.23 1.01c22.14 27 53.22 46.03 88.54 52.36l.87 130.42c.07 9.95 8.18 17.95 18.13 17.89l17.77-.12c9.94-.07 17.95-8.18 17.88-18.13l-.87-130.42c1.254-.242 2.496-.517 3.739-.791z" fill="#e9b665"/><path d="m498.817 358.206c7.11 6.96 7.23 18.36.27 25.46l-12.44 12.7c-6.96 7.1-18.36 7.22-25.46.26l-93.18-91.27c-29.98 21.04-66.26 29.61-101.71 25.72l.07-.66 163.6-159.17h.01c2.89 33.29-5.18 67.15-24.33 95.69z" fill="#fccd7f"/><circle cx="134.855" cy="160.94" fill="#ebebeb" r="54.835"/><path d="m121.99 160.94c0-22.85 13.98-42.428 33.849-50.667-6.465-2.681-13.551-4.168-20.985-4.168-30.284 0-54.835 24.55-54.835 54.835s24.55 54.835 54.835 54.835c7.435 0 14.52-1.487 20.985-4.168-19.869-8.239-33.849-27.818-33.849-50.667z" fill="#e2e2e2"/><path d="m504.068 352.847-88.813-86.996c.283-.46.554-.926.832-1.388.239-.399.482-.796.717-1.198 36.438-62.015 25.47-142.394-27.669-194.443-23.508-23.027-52.87-38.244-84.913-44.006-30.212-5.433-60.766-2.151-88.61 9.434-18.432-7.611-38.298-11.601-58.757-11.601-.35 0-.704.001-1.055.003-41.934.28-81.237 17.25-110.669 47.783-29.387 30.486-45.413 70.853-45.127 113.664.504 75.421 52.079 139.91 123.522 155.71l.831 124.319c.094 14.007 11.518 25.337 25.504 25.336h.173l17.771-.119c6.813-.046 13.2-2.741 17.985-7.591 4.786-4.85 7.396-11.272 7.351-18.085l-.832-124.323c.173-.041.342-.09.514-.131 1.474-.353 2.941-.726 4.402-1.122.208-.057.417-.111.625-.168.363-.1.729-.191 1.091-.293.204-.058.4-.128.594-.202 8.371-2.413 16.467-5.51 24.218-9.251 23.678 9.362 49.389 13.021 74.605 10.56 24.594-2.401 48.234-10.584 68.761-23.751l88.817 86.996c4.956 4.854 11.403 7.274 17.847 7.274 6.62-.001 13.235-2.555 18.224-7.646l12.435-12.695c4.768-4.867 7.354-11.3 7.284-18.112s-2.791-13.192-7.658-17.958zm-325.928 110.921c.019 2.807-1.056 5.452-3.027 7.449-1.971 1.998-4.603 3.108-7.409 3.127l-17.771.119c-.024 0-.047 0-.071 0-5.76 0-10.467-4.667-10.505-10.436l-.872-130.425c-.024-3.613-2.621-6.695-6.177-7.333-28.736-5.149-54.175-18.955-73.958-38.535l197.64-.662c-17.169 17.182-38.536 29.92-62.321 36.443-.228.062-.456.123-.684.184-1.386.373-2.781.724-4.183 1.054-.198.046-.395.096-.593.142-1.589.367-3.187.708-4.795 1.019-6.087 1.178-12.263 1.954-18.466 2.309-4.135.236-7.296 3.78-7.06 7.915.228 3.99 3.535 7.072 7.481 7.072.144 0 .29-.004.435-.013 3.854-.22 7.699-.597 11.523-1.105zm130.975-241.872c.979-4.024-1.491-8.081-5.517-9.06-4.032-.979-8.081 1.492-9.06 5.517-4.826 19.854-13.635 38.039-25.457 53.676l-223.887.75c-18.82-24.624-29.968-55.525-30.19-88.78-.26-38.871 14.274-75.505 40.926-103.154 26.605-27.601 62.108-42.94 99.97-43.193 19.583-.114 38.579 3.806 56.092 11.375.365.195.745.357 1.137.49 15.919 7.05 30.585 17.136 43.309 29.988 27.019 27.29 42.042 63.727 42.301 102.596.017 2.46-.035 5.049-.152 7.693-.183 4.138 3.024 7.641 7.162 7.823 4.137.214 7.641-3.022 7.824-7.161.128-2.896.184-5.74.166-8.454-.286-42.812-16.851-82.96-46.642-113.05-9.967-10.067-21.018-18.599-32.875-25.497 21.586-6.609 44.567-7.973 67.344-3.877 29.07 5.229 55.722 19.045 77.072 39.958 25.146 24.631 39.897 56.232 43.571 88.795l-159.088 154.775c-7.418-1.021-14.762-2.611-21.957-4.76 33.282-21.719 58.109-55.962 67.951-96.45zm184.61 156.523-12.435 12.696c-1.964 2.005-4.591 3.125-7.397 3.153-.037.001-.074.001-.111.001-2.765 0-5.371-1.063-7.35-3.001l-93.176-91.267c-2.58-2.528-6.596-2.856-9.556-.781-19.573 13.73-42.672 22.233-66.8 24.589-4.549.444-9.116.665-13.684.673l139.844-136.05c-.613 22.366-6.472 44.602-17.794 64.794-.404.721-.814 1.439-1.231 2.154-.241.413-.484.824-.73 1.234-.339.568-.684 1.132-1.032 1.695-.286.463-.572.927-.864 1.388-.337.531-.681 1.058-1.025 1.585-.297.456-.591.913-.894 1.366-3.462 5.168-7.275 10.116-11.408 14.784-2.745 3.102-2.456 7.842.646 10.587 1.427 1.263 3.201 1.884 4.968 1.884 2.073 0 4.137-.854 5.619-2.529 2.559-2.891 5-5.885 7.333-8.958l86.924 85.145c2.005 1.964 3.125 4.592 3.154 7.397s-1.036 5.456-3.001 7.461z"/><path d="m134.855 98.604c-9.665 0-18.944 2.164-27.581 6.433-3.713 1.835-5.236 6.333-3.4 10.047 1.834 3.711 6.331 5.236 10.047 3.4 6.552-3.238 13.595-4.88 20.935-4.88 26.101 0 47.335 21.234 47.335 47.336 0 26.1-21.234 47.334-47.335 47.334s-47.336-21.234-47.336-47.334c0-8.876 2.48-17.536 7.172-25.042 2.196-3.513 1.128-8.14-2.384-10.335-3.513-2.197-8.14-1.129-10.335 2.384-6.184 9.893-9.453 21.302-9.453 32.993 0 34.371 27.963 62.334 62.335 62.334s62.335-27.963 62.335-62.334c0-34.372-27.964-62.336-62.335-62.336z"/></svg>